<svg width="28" height="29" viewBox="0 0 28 29" fill="none" xmlns="http://www.w3.org/2000/svg">
<path d="M14 0.59668C11.2311 0.59668 8.52431 1.41777 6.22202 2.95611C3.91973 4.49445 2.12532 6.68095 1.06569 9.23911C0.006066 11.7973 -0.271181 14.6122 0.269012 17.3279C0.809205 20.0437 2.14258 22.5382 4.10051 24.4962C6.05845 26.4541 8.55301 27.7875 11.2687 28.3277C13.9845 28.8679 16.7994 28.5906 19.3576 27.531C21.9157 26.4714 24.1022 24.677 25.6406 22.3747C27.1789 20.0724 28 17.3656 28 14.5967C27.996 10.8849 26.5197 7.32626 23.8951 4.70162C21.2704 2.07698 17.7118 0.600694 14 0.59668ZM18.6667 15.7633H15.1667V19.2633C15.1667 19.5728 15.0438 19.8695 14.825 20.0883C14.6062 20.3071 14.3094 20.43 14 20.43C13.6906 20.43 13.3938 20.3071 13.175 20.0883C12.9563 19.8695 12.8333 19.5728 12.8333 19.2633V15.7633H9.33334C9.02392 15.7633 8.72717 15.6404 8.50838 15.4216C8.28959 15.2028 8.16667 14.9061 8.16667 14.5967C8.16667 14.2873 8.28959 13.9905 8.50838 13.7717C8.72717 13.5529 9.02392 13.43 9.33334 13.43H12.8333V9.93001C12.8333 9.62059 12.9563 9.32385 13.175 9.10506C13.3938 8.88626 13.6906 8.76335 14 8.76335C14.3094 8.76335 14.6062 8.88626 14.825 9.10506C15.0438 9.32385 15.1667 9.62059 15.1667 9.93001V13.43H18.6667C18.9761 13.43 19.2728 13.5529 19.4916 13.7717C19.7104 13.9905 19.8333 14.2873 19.8333 14.5967C19.8333 14.9061 19.7104 15.2028 19.4916 15.4216C19.2728 15.6404 18.9761 15.7633 18.6667 15.7633Z" fill="#BAFF66"/>
</svg>
