<svg width="33" height="33" viewBox="0 0 33 33" fill="none" xmlns="http://www.w3.org/2000/svg">
<g clip-path="url(#clip0_4900_4098)">
<path d="M24.6595 20.92C23.4513 19.8866 22.2252 19.2607 21.0318 20.2925L20.3192 20.9161C19.7979 21.3688 18.8285 23.4839 15.0806 19.1725C11.3335 14.8665 13.5633 14.1961 14.0855 13.7473L14.802 13.1229C15.9891 12.0888 15.5411 10.7869 14.6849 9.44682L14.1682 8.63511C13.3081 7.29814 12.3715 6.42009 11.1813 7.45267L10.5381 8.01463C10.0121 8.39785 8.54166 9.6435 8.18498 12.0099C7.75571 14.8494 9.10986 18.1009 12.2123 21.6685C15.3108 25.2376 18.3446 27.0304 21.2183 26.9992C23.6066 26.9735 25.049 25.6919 25.5001 25.2259L26.1456 24.6632C27.3327 23.6314 26.5951 22.5809 25.3861 21.5452L24.6595 20.92Z" fill="white" fill-opacity="0.7"/>
</g>
<defs>
<clipPath id="clip0_4900_4098">
<rect width="20" height="20" fill="white" transform="translate(7.42773 7)"/>
</clipPath>
</defs>
</svg>
