<svg width="33" height="33" viewBox="0 0 33 33" fill="none" xmlns="http://www.w3.org/2000/svg">
<path d="M26.0413 7.16783C23.0081 8.42388 10.003 13.8109 6.4096 15.2792C3.99963 16.2196 5.41033 17.1013 5.41033 17.1013C5.41033 17.1013 7.46745 17.8065 9.23076 18.3355C10.9941 18.8646 11.9345 18.2767 11.9345 18.2767L20.2221 12.6928C23.1608 10.6945 22.4556 12.3401 21.7504 13.0454C20.2221 14.5737 17.6947 16.9834 15.5788 18.9232C14.6383 19.746 15.1085 20.4515 15.52 20.8041C17.0483 22.0972 21.2213 24.7421 21.4566 24.9186C22.6983 25.7976 25.1407 27.063 25.5122 24.3895L26.9817 15.1615C27.452 12.0463 27.9222 9.16613 27.981 8.34329C28.1572 6.34498 26.0413 7.16783 26.0413 7.16783Z" fill="white" fill-opacity="0.7"/>
</svg>
