<svg width="33" height="33" viewBox="0 0 33 33" fill="none" xmlns="http://www.w3.org/2000/svg">
<g clip-path="url(#clip0_4900_4089)">
<path d="M16.6455 5.5C22.1685 5.5 26.6455 9.977 26.6455 15.5C26.6455 21.023 22.1685 25.5 16.6455 25.5C14.8783 25.503 13.1421 25.0353 11.6155 24.145L6.64952 25.5L8.00152 20.532C7.11048 19.0049 6.64243 17.268 6.64552 15.5C6.64552 9.977 11.1225 5.5 16.6455 5.5ZM13.2375 10.8L13.0375 10.808C12.9082 10.8169 12.7819 10.8509 12.6655 10.908C12.5571 10.9695 12.4581 11.0463 12.3715 11.136C12.2515 11.249 12.1835 11.347 12.1105 11.442C11.7406 11.9229 11.5415 12.5133 11.5445 13.12C11.5465 13.61 11.6745 14.087 11.8745 14.533C12.2835 15.435 12.9565 16.39 13.8445 17.275C14.0585 17.488 14.2685 17.702 14.4945 17.901C15.598 18.8724 16.9128 19.573 18.3345 19.947L18.9025 20.034C19.0875 20.044 19.2725 20.03 19.4585 20.021C19.7497 20.0056 20.034 19.9268 20.2915 19.79C20.4224 19.7223 20.5502 19.6489 20.6745 19.57C20.6745 19.57 20.7169 19.5413 20.7995 19.48C20.9345 19.38 21.0175 19.309 21.1295 19.192C21.2135 19.1053 21.2835 19.0047 21.3395 18.89C21.4175 18.727 21.4955 18.416 21.5275 18.157C21.5515 17.959 21.5445 17.851 21.5415 17.784C21.5375 17.677 21.4485 17.566 21.3515 17.519L20.7695 17.258C20.7695 17.258 19.8995 16.879 19.3675 16.637C19.3118 16.6128 19.2522 16.5989 19.1915 16.596C19.1231 16.5888 19.0539 16.5965 18.9887 16.6184C18.9235 16.6403 18.8637 16.676 18.8135 16.723C18.8085 16.721 18.7415 16.778 18.0185 17.654C17.977 17.7098 17.9199 17.7519 17.8543 17.7751C17.7888 17.7982 17.7178 17.8013 17.6505 17.784C17.5854 17.7666 17.5215 17.7446 17.4595 17.718C17.3355 17.666 17.2925 17.646 17.2075 17.61C16.6334 17.3599 16.102 17.0215 15.6325 16.607C15.5065 16.497 15.3895 16.377 15.2695 16.261C14.8761 15.8842 14.5333 15.458 14.2495 14.993L14.1905 14.898C14.1488 14.8338 14.1146 14.765 14.0885 14.693C14.0505 14.546 14.1495 14.428 14.1495 14.428C14.1495 14.428 14.3925 14.162 14.5055 14.018C14.6155 13.878 14.7085 13.742 14.7685 13.645C14.8865 13.455 14.9235 13.26 14.8615 13.109C14.5815 12.425 14.2922 11.7447 13.9935 11.068C13.9345 10.934 13.7595 10.838 13.6005 10.819C13.5465 10.8123 13.4925 10.807 13.4385 10.803C13.3043 10.7953 13.1696 10.7966 13.0355 10.807L13.2375 10.8Z" fill="white" fill-opacity="0.7"/>
</g>
<defs>
<clipPath id="clip0_4900_4089">
<rect width="24" height="24" fill="white" transform="translate(5.42773 5)"/>
</clipPath>
</defs>
</svg>
