<svg width="51" height="51" viewBox="0 0 51 51" fill="none" xmlns="http://www.w3.org/2000/svg">
<g clip-path="url(#clip0_4946_7912)">
<path fill-rule="evenodd" clip-rule="evenodd" d="M6.50922 0.216797H23.2259L37.3938 14.9844V43.7076C37.3938 47.3058 34.4827 50.2168 30.897 50.2168H6.50922C2.91103 50.2168 1.02824e-09 47.3058 1.02824e-09 43.7076V6.72602C-6.31738e-05 3.12783 2.91097 0.216797 6.50922 0.216797Z" fill="#E5252A"/>
<path opacity="0.302" fill-rule="evenodd" clip-rule="evenodd" d="M23.2129 0.216797V14.872H37.3933L23.2129 0.216797Z" fill="white"/>
<path d="M7.2334 37.5236V28.3906H11.119C12.081 28.3906 12.8431 28.653 13.4178 29.1902C13.9925 29.715 14.2799 30.4271 14.2799 31.3142C14.2799 32.2012 13.9925 32.9134 13.4178 33.4381C12.8431 33.9753 12.081 34.2377 11.119 34.2377H9.56973V37.5236H7.2334ZM9.56973 32.2512H10.8566C11.2064 32.2512 11.4813 32.1763 11.6687 32.0014C11.8561 31.839 11.9561 31.6141 11.9561 31.3142C11.9561 31.0144 11.8562 30.7895 11.6687 30.6271C11.4813 30.4521 11.2065 30.3772 10.8566 30.3772H9.56973V32.2512ZM15.2419 37.5236V28.3906H18.4778C19.1149 28.3906 19.7147 28.4781 20.2769 28.6655C20.8391 28.8529 21.3513 29.1153 21.8011 29.4776C22.2509 29.8274 22.6132 30.3022 22.8756 30.9019C23.1254 31.5016 23.2629 32.1888 23.2629 32.9633C23.2629 33.7255 23.1255 34.4126 22.8756 35.0123C22.6132 35.612 22.2509 36.0868 21.8011 36.4366C21.3513 36.7989 20.8391 37.0612 20.2769 37.2487C19.7147 37.4361 19.1149 37.5236 18.4778 37.5236H15.2419ZM17.5282 35.5371H18.2029C18.5652 35.5371 18.9026 35.4996 19.2149 35.4121C19.5147 35.3247 19.8021 35.1872 20.077 34.9999C20.3393 34.8125 20.5517 34.55 20.7016 34.2002C20.8516 33.8504 20.9266 33.4381 20.9266 32.9633C20.9266 32.4761 20.8516 32.0638 20.7016 31.714C20.5517 31.3642 20.3393 31.1018 20.077 30.9144C19.8021 30.727 19.5148 30.5896 19.2149 30.5021C18.9026 30.4147 18.5652 30.3772 18.2029 30.3772H17.5282V35.5371ZM24.4373 37.5236V28.3906H30.9341V30.3772H26.7736V31.8389H30.097V33.8129H26.7736V37.5236H24.4373Z" fill="white"/>
</g>
<defs>
<clipPath id="clip0_4946_7912">
<rect width="50" height="50" fill="white" transform="translate(0.257812 0.216797)"/>
</clipPath>
</defs>
</svg>
