<svg width="126" height="35" viewBox="0 0 126 35" fill="none" xmlns="http://www.w3.org/2000/svg">
<g clip-path="url(#clip0_4790_2604)">
<path fill-rule="evenodd" clip-rule="evenodd" d="M3.07596 2.56282C4.72531 0.921872 6.96232 0 9.29487 0H35.6795V26.25C35.6795 28.5706 34.7529 30.7962 33.1035 32.4372C31.4542 34.0781 29.2171 35 26.8846 35H9.29487C6.96232 35 4.72531 34.0781 3.07596 32.4372C1.4266 30.7962 0.5 28.5706 0.5 26.25V8.75C0.5 6.42936 1.4266 4.20376 3.07596 2.56282ZM25.3486 13.1215H29.571L24.7913 18.3459L29.5638 26.2287H25.7701L22.4765 20.8479L21.3191 22.099V26.1861H18.0612V24.7645C16.7519 25.8611 15.0855 26.445 13.3744 26.4064C10.9953 26.4064 9.17344 25.7241 7.95887 24.3664C7.09352 23.3759 6.58999 22.1235 6.52997 20.8124H10.0022C10.0022 20.8124 10.1094 23.2007 13.3601 23.2007C14.6318 23.2007 16.5323 22.7387 16.5823 21.1252C16.6323 19.5116 14.8819 19.1776 13.06 18.943C10.7524 18.6445 7.60879 18.1042 6.85148 14.735C6.72582 14.0194 6.75649 13.2852 6.94141 12.5824C7.12633 11.8797 7.46116 11.2247 7.92315 10.6621C8.49404 9.97436 9.21791 9.42816 10.0375 9.0667C10.8572 8.70524 11.7501 8.53843 12.6457 8.57946C13.5786 8.52553 14.5126 8.66653 15.3875 8.99339C16.2623 9.32026 17.0587 9.82574 17.7254 10.4773C17.8492 10.61 17.9635 10.745 18.0683 10.8825V8.75006H21.3262V17.5001L25.3486 13.1215ZM12.71 11.6146C11.081 11.6146 9.83073 12.7235 10.1165 13.9745C10.4134 15.2728 12.065 15.504 13.8828 15.7584C15.3892 15.9693 17.0097 16.1961 18.0683 17.0594V13.9745H16.1893C15.6321 11.9416 14.1389 11.6146 12.71 11.6146Z" fill="#BAFF66"/>
<path d="M50.3828 16.5826C50.2782 16.4109 50.1612 16.247 50.0328 16.0921C49.878 15.9274 49.6999 15.7861 49.5041 15.6728C49.2806 15.5397 49.0404 15.4369 48.7896 15.3671C48.4557 15.2838 48.1121 15.2455 47.768 15.2534C47.5739 15.2571 47.3803 15.2761 47.1893 15.3102C46.9445 15.3669 46.7054 15.4454 46.4748 15.5448C46.2195 15.682 45.9799 15.8465 45.7604 16.0353C45.5127 16.2616 45.3093 16.5315 45.1602 16.8314C44.9467 17.2136 44.7925 17.6258 44.703 18.0539C44.586 18.6077 44.5308 19.1727 44.5386 19.7386C44.5297 20.3757 44.6042 21.0113 44.7601 21.6293C44.8827 22.1379 45.0982 22.6198 45.396 23.0509C45.6582 23.4205 46.0095 23.7187 46.4176 23.9181C46.8277 24.1304 47.2843 24.2379 47.7465 24.2308C48.2358 24.2491 48.7233 24.1618 49.1754 23.9749C49.5099 23.8186 49.8089 23.5961 50.0542 23.321C50.254 23.0829 50.4089 22.8108 50.5114 22.5178C50.6186 22.2477 50.7115 21.9918 50.7686 21.807H53.4836C53.3757 22.5546 53.1337 23.2769 52.7691 23.9394C52.4488 24.5118 52.0221 25.0183 51.5117 25.4321C51.0006 25.8267 50.4187 26.121 49.797 26.2993C48.2962 26.7472 46.6873 26.6771 45.2317 26.1003C44.5125 25.7915 43.8744 25.3221 43.367 24.7284C42.8373 24.0876 42.4414 23.3482 42.2024 22.5533C41.9197 21.6324 41.7847 20.6729 41.8023 19.7101C41.7916 18.9783 41.8708 18.2478 42.0381 17.5351C42.1649 16.937 42.3716 16.3585 42.6525 15.8149C42.9184 15.3354 43.2502 14.8952 43.6384 14.507C43.997 14.1459 44.409 13.8415 44.8602 13.6043C45.3012 13.3679 45.7689 13.1842 46.2533 13.057C46.7366 12.95 47.23 12.8952 47.7251 12.8935C48.3656 12.8833 49.0046 12.9574 49.6255 13.1139C50.1256 13.251 50.6059 13.4517 51.0544 13.7109C51.4501 13.9408 51.8089 14.2283 52.119 14.5639C52.3887 14.8669 52.628 15.1954 52.8334 15.5448C52.9983 15.8722 53.1368 16.2121 53.2478 16.5613C53.3358 16.8697 53.3909 17.1866 53.4121 17.5066H50.7258L50.5972 17.0588C50.5406 16.8939 50.4688 16.7345 50.3828 16.5826Z" fill="white"/>
<path d="M60.7564 16.5977H64.0857L60.0991 20.6137L64.2715 26.2575H60.9922L58.1344 22.1704L57.1127 23.2081V26.2575H54.605V16.5977H57.1198V20.2654L60.7564 16.5977Z" fill="white"/>
<path d="M64.1576 19.377C64.3619 18.7751 64.6988 18.2263 65.1436 17.7705C65.5836 17.3128 66.1171 16.954 66.7082 16.7186C67.3639 16.4552 68.0659 16.3248 68.773 16.3347C69.4918 16.3229 70.2058 16.4534 70.8734 16.7186C71.4612 16.9524 71.9904 17.3115 72.4238 17.7705C72.8521 18.2495 73.1865 18.804 73.4097 19.4054C73.8478 20.7378 73.8478 22.1744 73.4097 23.5067C73.1882 24.1089 72.8536 24.6637 72.4238 25.1416C71.9846 25.5939 71.457 25.9519 70.8734 26.1936C70.2058 26.4588 69.4918 26.5893 68.773 26.5774C68.0659 26.5874 67.3639 26.4569 66.7082 26.1936C66.1213 25.9503 65.5893 25.5926 65.1436 25.1416C64.6886 24.6633 64.3511 24.0867 64.1576 23.457C63.691 22.1293 63.691 20.6833 64.1576 19.3556V19.377ZM66.5653 22.4974C66.6216 22.8404 66.7506 23.1675 66.944 23.457C67.1195 23.7489 67.365 23.9931 67.6584 24.1678C67.9948 24.3439 68.3716 24.4296 68.7515 24.4166C69.1502 24.4346 69.5467 24.3489 69.9018 24.1678C70.1894 24.001 70.434 23.7698 70.6162 23.4925C70.8034 23.2051 70.9321 22.8839 70.9949 22.5472C71.1472 21.8181 71.1472 21.0656 70.9949 20.3366C70.9309 19.9935 70.8025 19.6655 70.6162 19.3699C70.4203 19.068 70.1447 18.8255 69.8196 18.6688C69.4946 18.5121 69.1325 18.4473 68.773 18.4814C68.393 18.4683 68.0163 18.5541 67.6799 18.7301C67.3882 18.907 67.1432 19.1507 66.9654 19.4409C66.766 19.7294 66.6297 20.0563 66.5653 20.4005C66.4869 20.7604 66.4439 21.127 66.4367 21.4952C66.4472 21.8326 66.4903 22.1682 66.5653 22.4974Z" fill="white"/>
<path d="M78.4821 18.6301L78.4463 20.4284C78.4035 21.4449 78.332 22.3334 78.2391 23.101C78.1599 23.7548 77.9941 24.3954 77.7462 25.006C77.545 25.4671 77.2245 25.8669 76.8174 26.1646C76.3689 26.437 75.8492 26.5706 75.3242 26.5484C75.0313 26.5484 74.7955 26.5484 74.6098 26.5129C74.4283 26.4836 74.2509 26.4335 74.0811 26.3636V24.2312L74.4097 24.3378C74.5618 24.3507 74.7148 24.3507 74.8669 24.3378C75.0528 24.3466 75.2348 24.2828 75.3742 24.1601C75.5616 23.9966 75.6959 23.7814 75.76 23.5417C75.8869 23.1269 75.973 22.7008 76.0172 22.2694C76.0672 21.7292 76.1029 21.0397 76.1244 20.1867L76.1958 16.5332H84.0048V26.257H81.5113V18.6301H78.4821Z" fill="white"/>
<path d="M91.9494 16.5977H95.3073L91.2993 20.6137L95.4788 26.2575H92.1995L89.3417 22.1704L88.32 23.2081V26.2575H85.8052V16.5977H88.32V20.2654L91.9494 16.5977Z" fill="white"/>
<path d="M95.3576 19.3761C95.5643 18.767 95.9005 18.2093 96.3435 17.7413C96.7875 17.2848 97.323 16.9264 97.9153 16.6893C98.5709 16.4254 99.273 16.2949 99.9801 16.3054C100.697 16.2936 101.408 16.4241 102.073 16.6893C102.666 16.9278 103.196 17.2973 103.624 17.7697C104.057 18.245 104.392 18.8005 104.61 19.4045C105.048 20.7369 105.048 22.1735 104.61 23.5059C104.394 24.1106 104.058 24.6664 103.624 25.1407C103.187 25.5962 102.659 25.9547 102.073 26.1927C101.408 26.4579 100.697 26.5884 99.9801 26.5765C99.273 26.5871 98.5709 26.4566 97.9153 26.1927C97.3273 25.9477 96.7932 25.5903 96.3435 25.1407C95.8989 24.6739 95.5624 24.1159 95.3576 23.5059C94.9003 22.1766 94.9003 20.7338 95.3576 19.4045V19.3761ZM97.7724 22.4965C97.8342 22.8437 97.9707 23.1735 98.1725 23.4632C98.3473 23.7557 98.5929 24.0001 98.887 24.174C99.226 24.3501 99.605 24.4358 99.9872 24.4228C100.379 24.4372 100.767 24.3515 101.116 24.174C101.404 24.0072 101.648 23.776 101.83 23.4988C102.018 23.2113 102.146 22.8901 102.209 22.5534C102.361 21.8243 102.361 21.0719 102.209 20.3428C102.145 19.9997 102.017 19.6718 101.83 19.3761C101.635 19.0718 101.359 18.8271 101.032 18.6691C100.706 18.5111 100.341 18.4458 99.9801 18.4805C99.5979 18.4675 99.2188 18.5532 98.8798 18.7293C98.5881 18.9062 98.3432 19.1499 98.1654 19.4401C97.966 19.7286 97.8297 20.0555 97.7653 20.3997C97.6834 20.7589 97.6403 21.1259 97.6367 21.4943C97.6464 21.8322 97.6919 22.1681 97.7724 22.4965Z" fill="white"/>
<path d="M112.433 16.7117C112.816 16.7881 113.184 16.9224 113.526 17.1097C113.839 17.3019 114.098 17.5712 114.276 17.8916C114.474 18.2782 114.567 18.7093 114.548 19.1426C114.557 19.3826 114.528 19.6225 114.462 19.8534C114.413 20.0508 114.325 20.2367 114.205 20.4007C114.108 20.5502 113.985 20.6804 113.84 20.7846C113.703 20.8904 113.555 20.981 113.397 21.0547C113.853 21.1898 114.247 21.4789 114.512 21.8721C114.776 22.2701 114.91 22.739 114.898 23.2155C114.906 23.6382 114.83 24.0583 114.676 24.4523C114.525 24.8106 114.295 25.131 114.005 25.3906C113.701 25.6704 113.341 25.8814 112.947 26.009C112.502 26.1614 112.033 26.236 111.561 26.2293H106.117V16.5979H111.118C111.559 16.594 111.999 16.6321 112.433 16.7117ZM111.304 20.3225C111.46 20.282 111.607 20.2147 111.74 20.1235C111.851 20.0481 111.934 19.9381 111.976 19.8108C112.03 19.6654 112.054 19.5107 112.047 19.3558C112.052 19.2196 112.028 19.0838 111.976 18.9578C111.924 18.8376 111.843 18.7324 111.74 18.6522C111.614 18.5595 111.47 18.4919 111.318 18.4531C111.1 18.3936 110.873 18.3672 110.647 18.3749H108.639V20.3936H110.575C110.82 20.3919 111.064 20.3681 111.304 20.3225ZM111.468 24.367C111.657 24.3015 111.83 24.1974 111.976 24.0614C112.091 23.9594 112.173 23.8259 112.211 23.6775C112.25 23.5485 112.27 23.4143 112.269 23.2795C112.281 23.0761 112.249 22.8725 112.176 22.6824C112.125 22.5303 112.021 22.4014 111.883 22.3199C111.73 22.204 111.546 22.1349 111.354 22.1209C111.097 22.0808 110.836 22.0617 110.575 22.064H108.639V24.4807H110.575C110.877 24.4911 111.179 24.4527 111.468 24.367Z" fill="white"/>
<path d="M115.919 19.3761C116.122 18.7692 116.456 18.2139 116.898 17.7496C117.34 17.2853 117.879 16.9233 118.477 16.6893C119.13 16.4254 119.83 16.2949 120.535 16.3054C121.253 16.2936 121.967 16.4241 122.635 16.6893C123.226 16.93 123.756 17.2991 124.185 17.7697C124.619 18.245 124.954 18.8005 125.171 19.4045C125.609 20.7369 125.609 22.1735 125.171 23.5059C124.955 24.1106 124.62 24.6664 124.185 25.1407C123.755 25.5803 123.24 25.9285 122.671 26.1643C122.003 26.4295 121.289 26.56 120.57 26.5481C119.866 26.5587 119.166 26.4281 118.513 26.1643C117.924 25.9211 117.389 25.5635 116.941 25.1123C116.496 24.6454 116.16 24.0874 115.955 23.4774C115.488 22.1497 115.488 20.7038 115.955 19.3761H115.919ZM118.327 22.4965C118.389 22.8437 118.525 23.1735 118.727 23.4632C118.903 23.7552 119.148 23.9994 119.441 24.174C119.778 24.3492 120.155 24.4349 120.535 24.4228C120.926 24.4378 121.315 24.3521 121.663 24.174C121.952 24.0085 122.197 23.777 122.378 23.4988C122.57 23.2134 122.702 22.8915 122.764 22.5534C122.906 21.8234 122.906 21.0728 122.764 20.3428C122.7 19.9984 122.569 19.6698 122.378 19.3761C122.193 19.1032 121.949 18.875 121.663 18.7079C121.311 18.5363 120.919 18.458 120.527 18.4805C120.148 18.4684 119.771 18.5541 119.434 18.7293C119.143 18.9062 118.898 19.1499 118.72 19.4401C118.521 19.7286 118.384 20.0555 118.32 20.3997C118.241 20.7595 118.198 21.1261 118.191 21.4943C118.204 21.8319 118.25 22.1676 118.327 22.4965Z" fill="white"/>
</g>
<defs>
<clipPath id="clip0_4790_2604">
<rect width="125" height="35" fill="white" transform="translate(0.5)"/>
</clipPath>
</defs>
</svg>
