<svg width="114" height="30" viewBox="0 0 114 30" fill="none" xmlns="http://www.w3.org/2000/svg">
<path d="M7.47267 25.672C2.63019 25.672 0 22.7853 0 19.1684C0 15.5515 3.09593 12.5172 8.17926 12.5172C9.52865 12.5172 10.6994 12.6636 11.717 13.1025V15.4593C10.3676 14.8015 9.28621 14.6724 8.29092 14.6724C4.84248 14.6724 3.56966 16.7747 3.56966 18.9852C3.56966 21.4514 5.17265 23.4062 7.97988 23.4062C9.21922 23.4062 10.2161 23.1228 11.4092 22.5929L12.2689 24.5028C10.4793 25.4347 8.95285 25.672 7.47107 25.672M61.9266 25.672C58.3442 25.672 56.51 23.4984 56.51 20.9044C56.51 17.9993 58.9424 16.0801 62.1914 16.0801C63.6285 16.0801 64.3798 16.3174 64.9763 16.61V18.6939C64.1804 18.2181 63.5392 18.0533 62.6556 18.0533C60.8213 18.0533 59.6394 19.1684 59.6394 20.7765C59.6394 22.2199 60.5549 23.6263 62.6109 23.6263C63.1851 23.6263 63.9459 23.4207 64.7626 23.074L65.5282 24.7954C64.5999 25.3069 63.0527 25.672 61.9251 25.672M71.8891 18.3459V25.4901H68.7055V18.3459H65.6111V16.2633H75.3838L74.6932 18.3459H71.8907H71.8891ZM87.2843 17.3415C87.2843 20.5564 87.1296 22.2383 86.423 23.0055C86.0689 23.389 85.517 23.6461 84.9412 23.7172L85.8248 25.672C86.5538 25.6535 87.683 25.3978 88.4566 24.7585C89.4742 23.936 89.8044 22.8947 89.9591 21.7981C90.0915 20.8662 90.1808 19.7708 90.1808 18.802V18.3446H92.6707V25.4888H95.8543V16.262H87.2843V17.3402V17.3415ZM51.1858 16.0801C49.9481 16.0801 48.9974 16.5744 48.1792 17.1043L47.8251 16.2633H45.1502V29.9848L48.3339 29.1808V25.2884C48.9097 25.5441 49.6609 25.672 50.4792 25.672C53.7729 25.672 55.7619 23.3521 55.7619 20.6118C55.7619 17.6882 53.7506 16.0801 51.1858 16.0801ZM49.7056 23.7726C49.1298 23.7726 48.688 23.6078 48.3339 23.4075V19.0406C48.7103 18.5661 49.7056 17.9993 50.5446 17.9993C51.827 17.9993 52.5782 18.6755 52.5782 20.5762C52.5782 22.1474 51.8716 23.7726 49.7056 23.7726ZM79.9584 16.0801C78.4543 16.0801 76.998 16.2725 75.47 17.0898L76.435 18.682C77.1846 18.3327 78.1496 18.0612 79.2789 18.0612C80.4081 18.0612 81.3699 18.4646 81.3699 19.4347V19.5915L79.44 19.6522C76.6232 19.7299 74.7203 20.7396 74.7203 22.6812C74.7203 24.5081 76.3153 25.672 78.4303 25.672C79.8658 25.672 80.8516 25.2265 81.5789 24.6821L82.0733 25.4901H84.5648V19.498C84.5648 17.07 82.9203 16.0801 79.9584 16.0801ZM81.3699 23.2058C81.0653 23.3996 80.4289 23.6329 79.5835 23.6329C78.5005 23.6329 77.8912 23.186 77.8912 22.4888C77.8912 21.7915 78.5484 21.4013 79.9121 21.3618L81.3699 21.3235V23.2058ZM102.038 19.2594H100.402V15.8613L97.2181 16.5665V25.4901H101.287C104.249 25.4901 107.013 24.831 107.013 22.2924C107.013 20.1372 104.78 19.2594 102.038 19.2594ZM101.507 23.6698H100.402V21.0942H101.464C102.59 21.0942 103.829 21.2405 103.829 22.3359C103.829 23.4312 102.767 23.6698 101.507 23.6698ZM30.8477 20.4655V20.3916C31.886 20.2097 32.7489 19.643 32.7489 18.4369C32.7489 16.9975 31.2863 16.4729 29.8492 16.3134C29.409 16.2646 28.444 16.2633 27.9065 16.2633H23.3559V25.4901H27.1775C27.6002 25.4901 28.2303 25.4888 28.7215 25.4769C30.7312 25.3978 33.2131 24.8047 33.2131 22.6575C33.2131 21.342 32.3502 20.6843 30.8477 20.4655ZM26.6017 18.0204H27.9065C29.2096 18.0204 29.6977 18.3499 29.6977 18.9167C29.6977 19.6285 28.9018 19.8473 27.5747 19.8473H26.6017V18.0204ZM27.8395 23.7396H26.5348V21.4738H27.6848C29.2096 21.4738 30.0278 21.7664 30.0278 22.5889C30.0278 23.4655 28.9448 23.7396 27.8395 23.7396ZM22.3079 20.795C22.3079 17.9439 20.185 16.0801 17.1337 16.0801C13.7953 16.0801 11.9164 18.309 11.9164 20.9044C11.9164 23.3337 13.5529 25.672 17.5325 25.672C18.8802 25.672 20.3828 25.4176 21.9315 24.6122L21.2233 22.9501C19.9633 23.4444 19.145 23.6078 18.062 23.6078C16.5802 23.6078 15.1655 22.8407 15.0985 21.5977H22.3079V20.795ZM15.0331 19.7906C15.0331 18.9496 15.7636 17.9993 17.0444 17.9993C18.3954 17.9993 18.9903 18.9127 19.0573 19.7906H15.0331ZM44.2395 20.795C44.2395 17.9439 42.1165 16.0801 39.0652 16.0801C35.7269 16.0801 33.8479 18.309 33.8479 20.9044C33.8479 23.3337 35.4844 25.672 39.464 25.672C40.8118 25.672 42.3159 25.4176 43.863 24.6122L43.1549 22.9501C41.8964 23.4444 41.0766 23.6078 39.9935 23.6078C38.5134 23.6078 37.0986 22.8407 37.0316 21.5977H44.2395V20.795ZM36.9646 19.7906C36.9646 18.9496 37.6951 17.9993 38.9759 17.9993C40.3253 17.9993 40.9218 18.9127 40.9888 19.7906H36.9646Z" fill="white"/>
<path d="M112.68 9.74525C112.499 9.84938 112.312 9.9311 112.122 9.98119C111.492 10.146 110.715 9.99437 110.018 9.75711C109.521 9.58708 108.999 9.36695 108.452 9.08883C108.738 8.51282 109.005 7.85508 109.234 7.12748C109.588 5.99786 109.757 5.00269 109.792 4.12878C109.814 3.58836 109.782 3.09406 109.71 2.64459C109.612 2.02639 109.382 1.39766 108.894 1.02727C108.739 0.912591 108.551 0.816367 108.34 0.737281C109.337 0.647649 110.222 0.641059 111.004 0.688511C111.825 0.746508 112.661 0.913907 113.149 1.30934C113.637 1.70477 113.853 2.39415 113.939 3.07034C114.019 3.71621 114.025 4.44776 113.932 5.27553C113.838 6.09145 113.647 6.99831 113.333 8.00403C113.137 8.62617 112.912 9.22064 112.682 9.74525H112.68ZM100.644 9.23514C100.625 9.05324 100.633 8.87793 100.676 8.71712C100.818 8.18329 101.365 7.70482 101.963 7.32256C102.391 7.05235 102.881 6.78873 103.447 6.53565C103.908 7.02863 104.463 7.54796 105.112 8.0752C106.118 8.89375 107.077 9.51194 107.975 9.97328C108.53 10.2593 109.063 10.4834 109.57 10.6574C110.267 10.8946 111.041 11.0462 111.674 10.8815C111.872 10.8274 112.066 10.7417 112.255 10.631C111.849 11.3889 111.414 12.0269 110.974 12.5621C110.502 13.1209 109.91 13.6363 109.251 13.7866C108.592 13.9382 107.763 13.7484 107.012 13.4715C106.296 13.2066 105.525 12.8441 104.704 12.3643C103.897 11.8898 103.04 11.2993 102.144 10.5704C101.589 10.1196 101.078 9.66089 100.644 9.23514ZM107.181 0.873046C107.382 0.950814 107.56 1.0444 107.707 1.15512C108.195 1.52419 108.423 2.15557 108.525 2.77376C108.596 3.21401 108.626 3.69776 108.608 4.22896C107.86 4.312 107.039 4.44908 106.162 4.65075C104.801 4.96183 103.673 5.33881 102.74 5.75137C102.163 6.00577 101.66 6.27467 101.227 6.55147C100.628 6.93108 100.083 7.40956 99.9394 7.94471C99.8963 8.11343 99.8883 8.29533 99.9123 8.48514C99.3205 7.81685 98.8691 7.18548 98.5294 6.60287C98.1785 5.986 97.936 5.30453 98.1067 4.75752C98.2774 4.2105 98.8915 3.71094 99.5566 3.31287C100.193 2.93194 100.957 2.56155 101.871 2.21489C102.772 1.87481 103.82 1.55714 105.031 1.28034C105.78 1.10899 106.517 0.971907 107.181 0.875685V0.873046Z" fill="white"/>
</svg>
