<svg width="21" height="21" viewBox="0 0 21 21" fill="none" xmlns="http://www.w3.org/2000/svg">
<path d="M10.8664 8.44141C10.2033 8.44141 9.56745 8.7048 9.09861 9.17364C8.62977 9.64248 8.36637 10.2784 8.36637 10.9414C8.36637 11.6044 8.62977 12.2403 9.09861 12.7092C9.56745 13.178 10.2033 13.4414 10.8664 13.4414C11.5294 13.4414 12.1653 13.178 12.6341 12.7092C13.103 12.2403 13.3664 11.6044 13.3664 10.9414C13.3664 10.2784 13.103 9.64248 12.6341 9.17364C12.1653 8.7048 11.5294 8.44141 10.8664 8.44141ZM10.8664 15.1081C9.76131 15.1081 8.7015 14.6691 7.9201 13.8877C7.13869 13.1063 6.69971 12.0465 6.69971 10.9414C6.69971 9.83634 7.13869 8.77653 7.9201 7.99513C8.7015 7.21373 9.76131 6.77474 10.8664 6.77474C11.9714 6.77474 13.0313 7.21373 13.8127 7.99513C14.5941 8.77653 15.033 9.83634 15.033 10.9414C15.033 12.0465 14.5941 13.1063 13.8127 13.8877C13.0313 14.6691 11.9714 15.1081 10.8664 15.1081ZM10.8664 4.69141C6.69971 4.69141 3.14137 7.28307 1.69971 10.9414C3.14137 14.5997 6.69971 17.1914 10.8664 17.1914C15.033 17.1914 18.5914 14.5997 20.033 10.9414C18.5914 7.28307 15.033 4.69141 10.8664 4.69141Z" fill="#CDCDD7"/>
</svg>
