<svg width="21" height="15" viewBox="0 0 21 15" fill="none" xmlns="http://www.w3.org/2000/svg">
<path fill-rule="evenodd" clip-rule="evenodd" d="M10.9051 2.28656C13.7131 2.28656 16.0351 4.41856 16.1701 7.09656C16.1971 7.43456 16.4401 7.72056 16.7911 7.82456C17.8441 8.08456 18.6271 8.99456 18.6271 10.0866C18.6271 11.3866 17.5471 12.4266 16.1971 12.4266H14.5771C14.1181 12.4266 13.7671 12.7646 13.7671 13.2066C13.7671 13.6226 14.1181 13.9866 14.5771 13.9866H16.1971C18.4381 13.9866 20.2471 12.2446 20.2471 10.0866C20.2471 8.47456 19.2211 7.07056 17.7631 6.49856C17.3311 3.24856 14.4421 0.726562 10.9321 0.726562C8.42107 0.726562 6.23407 2.02656 5.01907 3.95056C2.61607 4.41856 0.807072 6.47256 0.807072 8.91656C0.807072 11.7246 3.15607 13.9866 6.07207 13.9866H6.47707C6.93607 13.9866 7.28707 13.6486 7.28707 13.2066C7.28707 12.7906 6.93607 12.4266 6.47707 12.4266H6.07207C4.04707 12.4266 2.42707 10.8666 2.42707 8.91656C2.42707 7.12256 3.83107 5.64056 5.64007 5.43256C5.91007 5.40656 6.12607 5.25056 6.26107 5.01656C7.12507 3.40456 8.88007 2.28656 10.9051 2.28656ZM10.5001 6.18656C10.0411 6.18656 9.69007 6.52456 9.69007 6.96656V11.3346L8.63707 10.3206C8.31307 10.0086 7.80007 10.0086 7.50307 10.3206C7.17907 10.6326 7.17907 11.1266 7.50307 11.4386L9.93307 13.7786C10.2571 14.0906 10.7701 14.0906 11.0671 13.7786L13.4971 11.4386C13.8211 11.1266 13.8211 10.6326 13.4971 10.3206C13.1731 10.0086 12.6601 10.0086 12.3631 10.3206L11.3101 11.3346V6.96656C11.3101 6.52456 10.9591 6.18656 10.5001 6.18656Z" fill="white"/>
</svg>
