<svg width="17" height="17" viewBox="0 0 17 17" fill="none" xmlns="http://www.w3.org/2000/svg">
<path fill-rule="evenodd" clip-rule="evenodd" d="M8.49984 15.8333C12.5499 15.8333 15.8332 12.5501 15.8332 8.50001C15.8332 4.44992 12.5499 1.16667 8.49984 1.16667C4.44975 1.16667 1.1665 4.44992 1.1665 8.50001C1.1665 12.5501 4.44975 15.8333 8.49984 15.8333ZM11.9364 6.96035C12.2432 6.65351 12.2432 6.15602 11.9364 5.84918C11.6295 5.54234 11.132 5.54234 10.8252 5.84918L7.19031 9.48408L5.91256 8.20633C5.60572 7.89949 5.10824 7.89949 4.8014 8.20633C4.49456 8.51317 4.49456 9.01065 4.8014 9.31749L6.63473 11.1508C6.94157 11.4577 7.43906 11.4577 7.7459 11.1508L11.9364 6.96035Z" fill="white"/>
</svg>
