<svg width="110" height="13" viewBox="0 0 110 13" fill="none" xmlns="http://www.w3.org/2000/svg">
<path d="M2.6775 13L3.815 8.19342L0 4.96053L5.04 4.53289L7 0L8.96 4.53289L14 4.96053L10.185 8.19342L11.3225 13L7 10.4513L2.6775 13Z" fill="#FFBB00"/>
<path d="M50.6775 13L51.815 8.19342L48 4.96053L53.04 4.53289L55 0L56.96 4.53289L62 4.96053L58.185 8.19342L59.3225 13L55 10.4513L50.6775 13Z" fill="#FFBB00"/>
<path d="M26.6775 13L27.815 8.19342L24 4.96053L29.04 4.53289L31 0L32.96 4.53289L38 4.96053L34.185 8.19342L35.3225 13L31 10.4513L26.6775 13Z" fill="#FFBB00"/>
<path d="M74.6775 13L75.815 8.19342L72 4.96053L77.04 4.53289L79 0L80.96 4.53289L86 4.96053L82.185 8.19342L83.3225 13L79 10.4513L74.6775 13Z" fill="#FFBB00"/>
<path d="M98.6775 13L99.815 8.19342L96 4.96053L101.04 4.53289L103 0L104.96 4.53289L110 4.96053L106.185 8.19342L107.322 13L103 10.4513L98.6775 13Z" fill="#FFBB00"/>
</svg>
