<svg width="16" height="17" viewBox="0 0 16 17" fill="none" xmlns="http://www.w3.org/2000/svg">
<path d="M13.7866 11.5209C12.82 10.6942 11.8391 10.1934 10.8844 11.0188L10.3144 11.5177C9.89727 11.8799 9.12178 13.572 6.12345 10.1228C3.12576 6.67809 4.90964 6.14174 5.32736 5.78271L5.90055 5.2832C6.85024 4.45588 6.49184 3.4144 5.80689 2.34232L5.39354 1.69295C4.70546 0.623373 3.9562 -0.0790655 3.004 0.747003L2.4895 1.19656C2.06866 1.50314 0.892312 2.49967 0.606966 4.39282C0.263551 6.66435 1.34687 9.26556 3.82882 12.1196C6.30765 14.975 8.73465 16.4092 11.0337 16.3842C12.9443 16.3636 14.0982 15.3384 14.4591 14.9656L14.9754 14.5154C15.9251 13.69 15.3351 12.8496 14.3679 12.021L13.7866 11.5209Z" fill="white" fill-opacity="0.2"/>
</svg>
