<svg width="32" height="32" viewBox="0 0 32 32" fill="none" xmlns="http://www.w3.org/2000/svg">
<path d="M25.8204 7.82367C22.3955 7.5508 19.2016 5.98788 16.8847 3.45105C16.4477 2.94471 15.6834 2.88853 15.1771 3.32544C15.1322 3.36419 15.0902 3.40616 15.0515 3.45105C12.7345 5.98788 9.54056 7.5508 6.11571 7.82367C5.47924 7.88341 4.99422 8.42009 4.99906 9.05914V12.1763C4.99906 18.953 9.30904 25.152 15.2933 28.9879C15.7044 29.2521 16.2317 29.2521 16.6428 28.9879C22.6271 25.151 26.9371 18.953 26.9371 12.1763V9.05914C26.9419 8.42009 26.4569 7.88341 25.8204 7.82367ZM24.8381 12.1763C24.8381 17.569 21.6254 23.0091 16.244 26.732L15.9682 26.9229L15.6928 26.732C10.311 23.0088 7.0977 17.5674 7.0977 12.1763V9.83479L7.50586 9.7702C10.5468 9.28938 13.3771 7.91861 15.6398 5.83063L15.9679 5.52838L16.2963 5.83063C18.559 7.91861 21.389 9.28938 24.4299 9.7702L24.8381 9.83479V12.1763Z" fill="#14AE5C"/>
<path d="M15.9679 6.83789C13.7258 8.79864 10.9959 10.1178 8.06641 10.6561V12.1764C8.06641 17.158 11.0137 22.2071 15.9682 25.7421C20.922 22.2078 23.8693 17.1583 23.8693 12.1764V10.6561C20.9398 10.1178 18.2099 8.79864 15.9679 6.83789ZM15.1386 19.4462L11.8733 16.1805L12.9828 15.071L15.1386 17.2268L19.5535 12.8118L20.6631 13.9217L15.1386 19.4462Z" fill="#14AE5C"/>
</svg>
