<svg width="122" height="29" viewBox="0 0 122 29" fill="none" xmlns="http://www.w3.org/2000/svg">
<g clip-path="url(#clip0_5647_3282)">
<path d="M34.4902 0.0372314V21.212C34.4902 23.084 33.5872 24.8796 31.9805 26.2032C30.3737 27.5269 28.1942 28.2706 25.9219 28.2706H8.78516C6.51276 28.2706 4.33341 27.5269 2.72656 26.2032C1.1197 24.8796 0.216797 23.084 0.216797 21.212V7.09583C0.216797 5.22384 1.1197 3.42831 2.72656 2.10461C4.33342 0.780963 6.51275 0.0372314 8.78516 0.0372314H34.4902ZM12.0498 6.95813C11.1773 6.92505 10.3073 7.05914 9.50879 7.35071C8.71039 7.64226 8.00535 8.08312 7.44922 8.63782C6.99921 9.09156 6.67236 9.61983 6.49219 10.1866C6.31203 10.7536 6.28285 11.3467 6.40527 11.924C7.14324 14.6412 10.2051 15.0767 12.4531 15.3175C14.228 15.5067 15.9335 15.7767 15.8848 17.0782C15.836 18.3797 13.985 18.752 12.7461 18.7521C9.60403 18.7521 9.47642 16.8561 9.47461 16.8263H6.0918C6.15035 17.8836 6.6407 18.8936 7.4834 19.6925C8.66665 20.7876 10.442 21.338 12.7598 21.338C14.4268 21.3691 16.0506 20.8984 17.3262 20.0138V21.1603H20.5V17.8634L21.627 16.8546L24.8359 21.1954H28.5322L23.8828 14.8361L28.5391 10.6222H24.4258L20.5068 14.1544V7.09583H17.333V8.81555C17.231 8.70483 17.1195 8.59629 16.999 8.48938C16.3495 7.96378 15.573 7.55578 14.7207 7.29211C13.8684 7.0285 12.9586 6.91463 12.0498 6.95813ZM12.1123 9.40637C13.5043 9.40637 14.9589 9.67015 15.502 11.3097H17.333V13.799C15.057 12.2623 10.1149 13.2248 9.58594 11.3097C9.30784 10.3007 10.5256 9.40646 12.1123 9.40637Z" fill="white"/>
<path d="M48.8141 13.4144C48.7121 13.2759 48.5981 13.1437 48.473 13.0187C48.3223 12.8859 48.1487 12.7719 47.9579 12.6804C47.7403 12.5731 47.5062 12.4902 47.2619 12.4339C46.9366 12.3666 46.6018 12.3358 46.2666 12.3421C46.0774 12.3451 45.8889 12.3604 45.7028 12.388C45.4643 12.4337 45.2314 12.497 45.0067 12.5772C44.758 12.6879 44.5246 12.8206 44.3107 12.9728C44.0694 13.1554 43.8712 13.3731 43.726 13.615C43.518 13.9234 43.3678 14.2559 43.2805 14.6013C43.1665 15.048 43.1128 15.5037 43.1205 15.9602C43.1117 16.4741 43.1843 16.9868 43.3362 17.4854C43.4556 17.8957 43.6656 18.2844 43.9557 18.6321C44.2111 18.9303 44.5534 19.1708 44.951 19.3317C45.3505 19.5029 45.7954 19.5896 46.2457 19.584C46.7223 19.5987 47.1972 19.5283 47.6378 19.3775C47.9636 19.2514 48.2549 19.0719 48.4939 18.85C48.6886 18.6579 48.8395 18.4384 48.9394 18.2021C49.0438 17.9842 49.1342 17.7778 49.1899 17.6287H51.8349C51.7298 18.2318 51.4941 18.8145 51.1388 19.3489C50.8268 19.8106 50.4111 20.2192 49.9138 20.553C49.4159 20.8713 48.849 21.1087 48.2433 21.2525C46.7812 21.6139 45.2137 21.5573 43.7956 21.0919C43.0949 20.8429 42.4733 20.4642 41.9789 19.9853C41.463 19.4684 41.0773 18.8719 40.8444 18.2308C40.569 17.4879 40.4374 16.7139 40.4546 15.9372C40.4442 15.3469 40.5213 14.7577 40.6843 14.1827C40.8079 13.7003 41.0092 13.2336 41.2829 12.7951C41.5419 12.4083 41.8652 12.0532 42.2434 11.7401C42.5928 11.4487 42.9942 11.2032 43.4337 11.0119C43.8634 10.8212 44.319 10.673 44.7909 10.5704C45.2617 10.484 45.7425 10.4398 46.2248 10.4385C46.8488 10.4303 47.4713 10.49 48.0763 10.6162C48.5635 10.7269 49.0314 10.8887 49.4683 11.0979C49.8538 11.2833 50.2034 11.5152 50.5054 11.7859C50.7682 12.0304 51.0014 12.2954 51.2015 12.5772C51.3621 12.8413 51.4971 13.1155 51.6052 13.3971C51.691 13.646 51.7446 13.9016 51.7653 14.1597H49.1482L49.0229 13.7985C48.9677 13.6655 48.8978 13.5369 48.8141 13.4144Z" fill="white"/>
<path d="M58.9206 13.4257H62.1642L58.2803 16.6653L62.3452 21.2179H59.1503L56.3662 17.921L55.3708 18.7581V21.2179H52.9277V13.4257H55.3778V16.3843L58.9206 13.4257Z" fill="white"/>
<path d="M62.2336 15.6676C62.4326 15.1821 62.7608 14.7394 63.1941 14.3717C63.6228 14.0024 64.1426 13.7131 64.7184 13.5231C65.3573 13.3107 66.0411 13.2054 66.73 13.2135C67.4303 13.2039 68.1259 13.3092 68.7763 13.5231C69.349 13.7118 69.8645 14.0014 70.2868 14.3717C70.704 14.7581 71.0298 15.2054 71.2473 15.6905C71.6741 16.7653 71.6741 17.9241 71.2473 18.9989C71.0314 19.4847 70.7055 19.9322 70.2868 20.3177C69.8589 20.6825 69.3449 20.9713 68.7763 21.1663C68.1259 21.3802 67.4303 21.4855 66.73 21.4759C66.0411 21.484 65.3573 21.3787 64.7184 21.1663C64.1467 20.97 63.6284 20.6815 63.1941 20.3177C62.7509 19.9319 62.4221 19.4668 62.2336 18.9588C61.7789 17.8878 61.7789 16.7214 62.2336 15.6504V15.6676ZM64.5792 18.1847C64.634 18.4614 64.7598 18.7253 64.9481 18.9588C65.1191 19.1943 65.3583 19.3913 65.6442 19.5322C65.9719 19.6742 66.339 19.7434 66.7091 19.7328C67.0975 19.7474 67.4837 19.6782 67.8297 19.5322C68.11 19.3976 68.3483 19.2111 68.5258 18.9875C68.7082 18.7556 68.8335 18.4965 68.8947 18.2249C69.0431 17.6367 69.0431 17.0298 68.8947 16.4416C68.8324 16.1649 68.7072 15.9003 68.5258 15.6618C68.3348 15.4183 68.0664 15.2227 67.7497 15.0963C67.433 14.9699 67.0803 14.9176 66.73 14.9451C66.3599 14.9346 65.9928 15.0038 65.665 15.1458C65.3809 15.2885 65.1422 15.4851 64.969 15.7192C64.7748 15.9519 64.642 16.2156 64.5792 16.4932C64.5028 16.7835 64.4609 17.0793 64.4539 17.3762C64.4642 17.6484 64.5061 17.9192 64.5792 18.1847Z" fill="white"/>
<path d="M76.19 15.0655L76.1552 16.5162C76.1134 17.3361 76.0438 18.0528 75.9533 18.6721C75.8761 19.1995 75.7146 19.7162 75.473 20.2087C75.277 20.5807 74.9648 20.9032 74.5682 21.1434C74.1312 21.3631 73.6249 21.4708 73.1135 21.453C72.8281 21.453 72.5984 21.453 72.4174 21.4243C72.2407 21.4007 72.0678 21.3603 71.9023 21.3039V19.5838L72.2225 19.6698C72.3707 19.6801 72.5198 19.6801 72.668 19.6698C72.8491 19.6768 73.0264 19.6254 73.1622 19.5264C73.3447 19.3945 73.4755 19.2209 73.538 19.0276C73.6617 18.6929 73.7456 18.3492 73.7886 18.0012C73.8373 17.5655 73.8721 17.0093 73.893 16.3212L73.9626 13.374H81.5704V21.2179H79.1412V15.0655H76.19Z" fill="white"/>
<path d="M89.3102 13.4257H92.5816L88.6768 16.6653L92.7486 21.2179H89.5538L86.7696 17.921L85.7743 18.7581V21.2179H83.3242V13.4257H85.7743V16.3843L89.3102 13.4257Z" fill="white"/>
<path d="M92.631 15.6677C92.8323 15.1763 93.1599 14.7265 93.5915 14.3489C94.024 13.9807 94.5458 13.6915 95.1228 13.5003C95.7615 13.2874 96.4455 13.1822 97.1344 13.1907C97.8324 13.1811 98.5257 13.2864 99.1738 13.5003C99.7509 13.6927 100.267 13.9907 100.684 14.3718C101.106 14.7553 101.433 15.2034 101.645 15.6906C102.071 16.7654 102.071 17.9242 101.645 18.999C101.434 19.4869 101.108 19.9352 100.684 20.3178C100.259 20.6852 99.7442 20.9744 99.1738 21.1664C98.5257 21.3803 97.8324 21.4856 97.1344 21.476C96.4455 21.4845 95.7615 21.3793 95.1228 21.1664C94.5499 20.9688 94.0296 20.6805 93.5915 20.3178C93.1583 19.9412 92.8305 19.4911 92.631 18.999C92.1855 17.9267 92.1855 16.7629 92.631 15.6906V15.6677ZM94.9836 18.1848C95.0438 18.4649 95.1767 18.7309 95.3734 18.9646C95.5437 19.2006 95.783 19.3977 96.0694 19.538C96.3997 19.68 96.769 19.7492 97.1413 19.7387C97.5227 19.7503 97.9013 19.6812 98.2411 19.538C98.5213 19.4034 98.7596 19.2169 98.9371 18.9933C99.1195 18.7614 99.2448 18.5023 99.306 18.2307C99.4544 17.6426 99.4544 17.0356 99.306 16.4475C99.2437 16.1707 99.1185 15.9062 98.9371 15.6677C98.7465 15.4222 98.4773 15.2248 98.1592 15.0974C97.8411 14.9699 97.4865 14.9172 97.1344 14.9452C96.762 14.9348 96.3927 15.0039 96.0625 15.1459C95.7783 15.2886 95.5396 15.4852 95.3664 15.7193C95.1722 15.952 95.0394 16.2157 94.9766 16.4933C94.8968 16.7832 94.8548 17.0792 94.8513 17.3764C94.8608 17.6489 94.9052 17.9199 94.9836 18.1848Z" fill="white"/>
<path d="M109.266 13.5175C109.639 13.5792 109.998 13.6875 110.331 13.8386C110.637 13.9936 110.888 14.2109 111.062 14.4693C111.255 14.7812 111.346 15.1289 111.327 15.4785C111.336 15.672 111.307 15.8656 111.243 16.0519C111.195 16.211 111.11 16.361 110.992 16.4934C110.899 16.6139 110.778 16.7189 110.637 16.803C110.504 16.8884 110.359 16.9614 110.206 17.0209C110.65 17.1299 111.034 17.3631 111.292 17.6803C111.549 18.0013 111.68 18.3796 111.668 18.764C111.675 19.1049 111.602 19.4438 111.452 19.7616C111.304 20.0507 111.081 20.3091 110.798 20.5185C110.502 20.7442 110.151 20.9144 109.767 21.0173C109.333 21.1403 108.876 21.2004 108.417 21.1951H103.113V13.4258H107.986C108.415 13.4226 108.844 13.4533 109.266 13.5175ZM108.167 16.4303C108.318 16.3976 108.462 16.3433 108.591 16.2697C108.7 16.2089 108.78 16.1202 108.821 16.0174C108.874 15.9002 108.897 15.7754 108.89 15.6505C108.896 15.5406 108.872 15.431 108.821 15.3294C108.771 15.2325 108.692 15.1476 108.591 15.0828C108.468 15.0081 108.329 14.9536 108.18 14.9223C107.967 14.8742 107.747 14.853 107.526 14.8592H105.57V16.4876H107.457C107.695 16.4862 107.932 16.467 108.167 16.4303ZM108.327 19.6928C108.51 19.64 108.679 19.556 108.821 19.4463C108.933 19.364 109.013 19.2563 109.051 19.1367C109.089 19.0325 109.107 18.9243 109.106 18.8156C109.118 18.6515 109.087 18.4873 109.016 18.3339C108.967 18.2112 108.865 18.1073 108.73 18.0415C108.581 17.948 108.402 17.8922 108.215 17.8809C107.964 17.8486 107.711 17.8332 107.457 17.8351H105.57V19.7846H107.457C107.751 19.7929 108.045 19.762 108.327 19.6928Z" fill="white"/>
<path d="M112.662 15.6677C112.859 15.1781 113.184 14.7302 113.615 14.3556C114.045 13.9811 114.571 13.6891 115.153 13.5003C115.79 13.2874 116.471 13.1821 117.158 13.1907C117.858 13.1811 118.554 13.2864 119.204 13.5003C119.78 13.6945 120.296 13.9922 120.715 14.3718C121.137 14.7553 121.463 15.2034 121.675 15.6906C122.102 16.7654 122.102 17.9242 121.675 18.999C121.465 19.4869 121.138 19.9352 120.715 20.3178C120.296 20.6724 119.794 20.9533 119.239 21.1435C118.589 21.3574 117.893 21.4627 117.193 21.4531C116.506 21.4616 115.825 21.3563 115.188 21.1435C114.614 20.9473 114.094 20.6588 113.657 20.2949C113.224 19.9183 112.896 19.4682 112.696 18.9761C112.242 17.9051 112.242 16.7387 112.696 15.6677H112.662ZM115.007 18.1848C115.067 18.4649 115.2 18.7309 115.397 18.9646C115.568 19.2001 115.807 19.3971 116.093 19.538C116.421 19.6793 116.788 19.7484 117.158 19.7387C117.539 19.7508 117.918 19.6817 118.258 19.538C118.539 19.4045 118.778 19.2178 118.954 18.9933C119.141 18.7631 119.269 18.5035 119.33 18.2307C119.469 17.6418 119.469 17.0364 119.33 16.4475C119.268 16.1696 119.14 15.9046 118.954 15.6677C118.773 15.4476 118.536 15.2634 118.258 15.1287C117.914 14.9903 117.533 14.9271 117.151 14.9452C116.781 14.9355 116.414 15.0046 116.086 15.1459C115.802 15.2886 115.563 15.4852 115.39 15.7193C115.196 15.952 115.063 16.2157 115 16.4933C114.924 16.7836 114.882 17.0794 114.875 17.3764C114.888 17.6487 114.932 17.9194 115.007 18.1848Z" fill="white"/>
</g>
<defs>
<clipPath id="clip0_5647_3282">
<rect width="121.779" height="28.2334" fill="white" transform="translate(0.216797 0.0372314)"/>
</clipPath>
</defs>
</svg>
