<svg width="22" height="22" viewBox="0 0 22 22" fill="none" xmlns="http://www.w3.org/2000/svg">
<path d="M11.1749 14.9458L8.4781 16.5707C8.35897 16.6465 8.23442 16.679 8.10445 16.6682C7.97449 16.6574 7.86077 16.614 7.7633 16.5382C7.66582 16.4624 7.59001 16.3677 7.53586 16.2542C7.48171 16.1406 7.47088 16.0132 7.50337 15.872L8.21817 12.8009L5.83008 10.7373C5.72177 10.6398 5.65419 10.5286 5.62733 10.4038C5.60047 10.279 5.60849 10.1573 5.65137 10.0385C5.69426 9.91982 5.75925 9.82232 5.84632 9.74606C5.9334 9.6698 6.05253 9.62105 6.20372 9.59982L9.35536 9.32358L10.5738 6.43124C10.6279 6.30125 10.712 6.20375 10.8259 6.13875C10.9398 6.07376 11.0562 6.04126 11.1749 6.04126C11.2936 6.04126 11.4099 6.07376 11.5238 6.13875C11.6377 6.20375 11.7218 6.30125 11.7759 6.43124L12.9944 9.32358L16.146 9.59982C16.2976 9.62149 16.4168 9.67023 16.5034 9.74606C16.59 9.82189 16.655 9.91939 16.6983 10.0385C16.7417 10.1577 16.7499 10.2797 16.723 10.4045C16.6962 10.5293 16.6284 10.6402 16.5196 10.7373L14.1315 12.8009L14.8464 15.872C14.8788 16.0128 14.868 16.1402 14.8139 16.2542C14.7597 16.3681 14.6839 16.4628 14.5864 16.5382C14.489 16.6136 14.3752 16.6569 14.2453 16.6682C14.1153 16.6795 13.9908 16.647 13.8716 16.5707L11.1749 14.9458Z" fill="#0C0E11"/>
</svg>
