<svg width="20" height="20" viewBox="0 0 20 20" fill="none" xmlns="http://www.w3.org/2000/svg">
<path d="M9.99967 3.33301C13.6817 3.33301 16.6663 6.31767 16.6663 9.99967C16.6663 13.6817 13.6817 16.6663 9.99967 16.6663C6.31767 16.6663 3.33301 13.6817 3.33301 9.99967C3.33301 6.31767 6.31767 3.33301 9.99967 3.33301ZM9.99967 5.99967C9.82286 5.99967 9.65329 6.06991 9.52827 6.19494C9.40325 6.31996 9.33301 6.48953 9.33301 6.66634V9.99967C9.33305 10.1765 9.40331 10.346 9.52834 10.471L11.5283 12.471C11.6541 12.5924 11.8225 12.6596 11.9973 12.6581C12.1721 12.6566 12.3393 12.5865 12.4629 12.4629C12.5865 12.3393 12.6566 12.1721 12.6581 11.9973C12.6596 11.8225 12.5924 11.6541 12.471 11.5283L10.6663 9.72367V6.66634C10.6663 6.48953 10.5961 6.31996 10.4711 6.19494C10.3461 6.06991 10.1765 5.99967 9.99967 5.99967Z" fill="#CDCDD7"/>
</svg>
