<svg width="33" height="33" viewBox="0 0 33 33" fill="none" xmlns="http://www.w3.org/2000/svg">
<path d="M21.0073 16.6115C22.4795 16.6115 23.5879 15.979 24.4051 14.8779L23.3129 14.0185C23.0431 14.3852 22.6944 14.6822 22.2943 14.8863C21.8942 15.0903 21.4536 15.1957 21.0073 15.1941C19.4095 15.1941 18.2518 13.8518 18.2518 12.2047C18.2518 10.5575 19.3906 9.13957 21.0529 9.13957C21.7918 9.13957 22.314 9.31946 22.7695 9.6105V11.0588H24.144V8.94707L23.8806 8.73336C23.1251 8.12034 21.9712 7.79492 21.0068 7.79492C18.649 7.79492 16.7312 9.77264 16.7312 12.2041C16.7312 14.6333 18.6484 16.6115 21.0073 16.6115ZM23.859 25.3084L23.8101 23.2786V18.3251H20.9434V19.7431H22.3623V23.1038C22.3623 24.5516 21.2901 25.5765 20.2084 25.5765C19.1268 25.5765 18.5623 24.8031 18.5623 23.3559V18.3246H15.8845V19.7425H17.1145V23.6017C17.1145 25.5656 18.1823 26.9189 20.0868 26.9189C21.1812 26.9189 22.0145 26.2927 22.5118 25.3273H22.534L22.7301 26.6771H24.9329V25.3101H23.8606V25.3073L23.859 25.3084ZM16.4145 8.00289H14.0256L11.9479 14.2248H11.9156L9.84898 8.00289H7.30343V9.42143H8.73509L11.199 16.513H12.5079V16.5113L15.0773 9.422H16.4134V8.00347L16.4145 8.00289ZM5.06787 26.6954H6.48343V25.2362H5.06843V26.6954H5.06787ZM10.5345 19.9694H10.519L10.4301 18.3251H7.90343V19.6176H9.24787V25.309H7.90343V26.6765H14.1479V25.3359H10.6712V21.9013C10.8284 20.6581 11.7323 19.5964 12.9656 19.5964H12.9879L12.9629 20.8672H14.3373V18.3016H13.2506C12.0062 18.2982 11.0829 18.9926 10.534 19.97L10.5345 19.9694Z" fill="white" fill-opacity="0.8"/>
</svg>
