<svg width="32" height="33" viewBox="0 0 32 33" fill="none" xmlns="http://www.w3.org/2000/svg">
<g clip-path="url(#clip0_7023_8567)">
<path d="M27.8863 16.6805C27.8863 16.5615 27.7895 16.4629 27.6705 16.4573C23.3983 16.2955 20.7982 15.7506 18.9792 13.9316C17.1566 12.1089 16.6135 9.50697 16.4517 5.22551C16.4479 5.10648 16.3494 5.00977 16.2285 5.00977H15.73C15.611 5.00977 15.5124 5.10648 15.5068 5.22551C15.345 9.50511 14.8019 12.1089 12.9792 13.9316C11.1584 15.7525 8.56016 16.2955 4.28801 16.4573C4.16898 16.4611 4.07227 16.5596 4.07227 16.6805V17.179C4.07227 17.298 4.16898 17.3966 4.28801 17.4022C8.56016 17.564 11.1603 18.1089 12.9792 19.9279C14.7982 21.7469 15.3413 24.3415 15.505 28.606C15.5087 28.7251 15.6073 28.8218 15.7282 28.8218H16.2285C16.3475 28.8218 16.4461 28.7251 16.4517 28.606C16.6153 24.3415 17.1584 21.7469 18.9774 19.9279C20.7982 18.1071 23.3964 17.564 27.6686 17.4022C27.7877 17.3984 27.8844 17.2999 27.8844 17.179V16.6805H27.8863Z" fill="white" fill-opacity="0.8"/>
</g>
<defs>
<clipPath id="clip0_7023_8567">
<rect width="24" height="24" fill="white" transform="translate(4 5)"/>
</clipPath>
</defs>
</svg>
