<svg width="33" height="33" viewBox="0 0 33 33" fill="none" xmlns="http://www.w3.org/2000/svg">
<path d="M26.9546 11.9174C26.6845 10.9133 25.8928 10.1218 24.8889 9.85143C23.0548 9.34961 15.7185 9.34961 15.7185 9.34961C15.7185 9.34961 8.38237 9.34961 6.54831 9.83242C5.56368 10.1025 4.75275 10.9135 4.48267 11.9174C4 13.7513 4 17.5546 4 17.5546C4 17.5546 4 21.3771 4.48267 23.1918C4.753 24.1958 5.54438 24.9873 6.54846 25.2576C8.40167 25.7596 15.7187 25.7596 15.7187 25.7596C15.7187 25.7596 23.0548 25.7596 24.8889 25.2768C25.893 25.0065 26.6845 24.2151 26.9548 23.2111C27.4373 21.3771 27.4373 17.5739 27.4373 17.5739C27.4373 17.5739 27.4566 13.7512 26.9546 11.9174ZM13.3827 21.0682V14.0409L19.4832 17.5546L13.3827 21.0682Z" fill="white" fill-opacity="0.8"/>
</svg>
