<svg width="33" height="33" viewBox="0 0 33 33" fill="none" xmlns="http://www.w3.org/2000/svg">
<g clip-path="url(#clip0_7023_8577)">
<path d="M10.7499 5H22.2497C25.4118 5 27.9995 7.58772 27.9995 10.7499V22.2501C27.9995 25.4114 25.4118 28 22.2497 28H10.7499C7.58779 28 5.00007 25.4114 5.00007 22.2501V10.7499C5.00007 7.58772 7.58779 5 10.7499 5ZM6.91679 22.2501C6.91679 24.3632 8.63568 26.0833 10.7499 26.0833H22.2497C24.363 26.0833 26.0828 24.3632 26.0828 22.2501V10.7499C26.0828 8.63622 24.363 6.91671 22.2497 6.91671H10.7499C8.63568 6.91671 6.91679 8.63622 6.91679 10.7499V22.2501Z" fill="white" fill-opacity="0.8"/>
<path d="M10.2701 11.7089C9.47616 11.7089 8.83259 11.0653 8.83259 10.2714C8.83259 9.47756 9.47616 8.83398 10.2701 8.83398C11.0639 8.83398 11.7075 9.47756 11.7075 10.2714C11.7075 11.0653 11.0639 11.7089 10.2701 11.7089Z" fill="white" fill-opacity="0.8"/>
<path d="M16.5001 10.75C19.6764 10.75 22.25 13.3239 22.25 16.4999C22.25 19.6746 19.6764 22.2503 16.5001 22.2503C13.3248 22.2503 10.7503 19.6746 10.7503 16.4999C10.7503 13.3239 13.3248 10.75 16.5001 10.75ZM16.5001 20.3336C18.617 20.3336 20.3333 18.6173 20.3333 16.4999C20.3333 14.3825 18.617 12.6667 16.5001 12.6667C14.3833 12.6667 12.667 14.3825 12.667 16.4999C12.667 18.6173 14.3833 20.3336 16.5001 20.3336Z" fill="white" fill-opacity="0.8"/>
</g>
<defs>
<clipPath id="clip0_7023_8577">
<rect width="23" height="23" fill="white" transform="matrix(-1 0 0 1 28 5)"/>
</clipPath>
</defs>
</svg>
