<svg width="16" height="16" viewBox="0 0 16 16" fill="none" xmlns="http://www.w3.org/2000/svg">
<path fill-rule="evenodd" clip-rule="evenodd" d="M14.9982 2.2732L10.1926 14.4724C10.1209 14.6548 9.99349 14.8099 9.82852 14.9157C9.66354 15.0215 9.4694 15.0725 9.27373 15.0615C9.07806 15.0506 8.89084 14.9782 8.7387 14.8547C8.58656 14.7311 8.47727 14.5628 8.42637 14.3735L6.9948 9.0682L1.68949 7.63663C1.50024 7.58573 1.33187 7.47644 1.20834 7.3243C1.08481 7.17216 1.01241 6.98494 1.00146 6.78927C0.9905 6.5936 1.04154 6.39946 1.14731 6.23448C1.25309 6.06951 1.4082 5.9421 1.59058 5.87038L13.7898 1.06476C13.9587 0.998281 14.1433 0.982568 14.321 1.01955C14.4987 1.05653 14.6617 1.1446 14.7901 1.27294C14.9184 1.40128 15.0065 1.5643 15.0434 1.74199C15.0804 1.91969 15.0647 2.10431 14.9982 2.2732Z" fill="white" fill-opacity="0.2"/>
</svg>
