<svg width="16" height="16" viewBox="0 0 16 16" fill="none" xmlns="http://www.w3.org/2000/svg">
<path d="M8.79492 14.7617C7.76497 14.7617 6.85124 14.6227 6.05371 14.3447C5.26074 14.0667 4.59082 13.6566 4.04395 13.1143C3.50163 12.5719 3.08919 11.9089 2.80664 11.125C2.52409 10.3411 2.38281 9.44564 2.38281 8.43848C2.38281 7.45866 2.52637 6.5791 2.81348 5.7998C3.10059 5.01595 3.5153 4.34831 4.05762 3.79688C4.60449 3.24089 5.26758 2.81706 6.04688 2.52539C6.83073 2.23372 7.7194 2.08789 8.71289 2.08789C9.66081 2.08789 10.4993 2.23828 11.2285 2.53906C11.9577 2.83529 12.5684 3.24316 13.0605 3.7627C13.5573 4.28223 13.931 4.87923 14.1816 5.55371C14.4368 6.22819 14.5645 6.94141 14.5645 7.69336C14.5645 8.21289 14.5303 8.72331 14.4619 9.22461C14.3936 9.72591 14.266 10.1794 14.0791 10.585C13.8968 10.9906 13.6325 11.3141 13.2861 11.5557C12.9443 11.7926 12.5 11.9111 11.9531 11.9111C11.7025 11.9111 11.4473 11.8724 11.1875 11.7949C10.9323 11.7174 10.7135 11.5944 10.5312 11.4258C10.3535 11.2572 10.2441 11.043 10.2031 10.7832H10.1484C10.071 10.9746 9.94564 11.1523 9.77246 11.3164C9.59928 11.4759 9.37826 11.6058 9.10938 11.7061C8.84505 11.8063 8.53743 11.8564 8.18652 11.8564C7.57585 11.8564 7.05632 11.7061 6.62793 11.4053C6.19954 11.0999 5.8737 10.6852 5.65039 10.1611C5.43164 9.63704 5.32227 9.04004 5.32227 8.37012C5.32227 7.71387 5.45215 7.13509 5.71191 6.63379C5.97624 6.13249 6.32943 5.74284 6.77148 5.46484C7.2181 5.18229 7.7194 5.04102 8.27539 5.04102C8.73112 5.04102 9.11165 5.12077 9.41699 5.28027C9.72689 5.43978 9.93424 5.60156 10.0391 5.76562H10.1143V5.20508H11.3311V9.81934C11.3311 10.0837 11.3994 10.307 11.5361 10.4893C11.6729 10.6715 11.8711 10.7627 12.1309 10.7627C12.4316 10.7627 12.6663 10.651 12.835 10.4277C13.0081 10.2044 13.1289 9.86263 13.1973 9.40234C13.2702 8.94206 13.3066 8.35189 13.3066 7.63184C13.3066 7.12598 13.2383 6.65202 13.1016 6.20996C12.9648 5.76335 12.7666 5.36003 12.5068 5C12.2516 4.63542 11.9349 4.32324 11.5566 4.06348C11.1784 3.79915 10.7477 3.59635 10.2646 3.45508C9.78158 3.30924 9.25065 3.23633 8.67188 3.23633C7.87435 3.23633 7.16797 3.35938 6.55273 3.60547C5.9375 3.85156 5.41797 4.20247 4.99414 4.6582C4.57487 5.11393 4.25586 5.66081 4.03711 6.29883C3.81836 6.93685 3.70898 7.65234 3.70898 8.44531C3.70898 9.27018 3.81836 10.0039 4.03711 10.6465C4.26042 11.2845 4.58854 11.8223 5.02148 12.2598C5.45898 12.6973 5.99674 13.0299 6.63477 13.2578C7.27734 13.4857 8.0179 13.5996 8.85645 13.5996C9.23014 13.5996 9.59473 13.5654 9.9502 13.4971C10.3057 13.4333 10.6224 13.3581 10.9004 13.2715C11.1829 13.1895 11.3926 13.1257 11.5293 13.0801L11.8711 14.1738C11.6706 14.265 11.4017 14.3561 11.0645 14.4473C10.7272 14.5384 10.3604 14.6136 9.96387 14.6729C9.56738 14.7321 9.17773 14.7617 8.79492 14.7617ZM8.32324 10.6328C8.75618 10.6328 9.10482 10.5462 9.36914 10.373C9.63346 10.1999 9.82259 9.94238 9.93652 9.60059C10.055 9.25879 10.1143 8.8304 10.1143 8.31543C10.1143 7.80957 10.0505 7.40625 9.92285 7.10547C9.7998 6.80469 9.6084 6.58822 9.34863 6.45605C9.08887 6.32389 8.75618 6.25781 8.35059 6.25781C7.97689 6.25781 7.65788 6.35124 7.39355 6.53809C7.12923 6.72038 6.92643 6.96647 6.78516 7.27637C6.64844 7.58626 6.58008 7.93262 6.58008 8.31543C6.58008 8.71647 6.63477 9.09245 6.74414 9.44336C6.85807 9.79427 7.04264 10.0814 7.29785 10.3047C7.55306 10.5234 7.89486 10.6328 8.32324 10.6328Z" fill="white" fill-opacity="0.2"/>
</svg>
