<svg width="21" height="21" viewBox="0 0 21 21" fill="none" xmlns="http://www.w3.org/2000/svg">
<g clip-path="url(#clip0_6899_9404)">
<path fill-rule="evenodd" clip-rule="evenodd" d="M10.5695 20.0355C15.6321 20.0355 19.7362 15.9314 19.7362 10.8688C19.7362 5.8062 15.6321 1.70215 10.5695 1.70215C5.50689 1.70215 1.40283 5.8062 1.40283 10.8688C1.40283 15.9314 5.50689 20.0355 10.5695 20.0355ZM14.8652 8.94425C15.2487 8.5607 15.2487 7.93884 14.8652 7.55529C14.4816 7.17174 13.8598 7.17174 13.4762 7.55529L8.93259 12.0989L7.33541 10.5017C6.95186 10.1182 6.33 10.1182 5.94645 10.5017C5.5629 10.8853 5.5629 11.5071 5.94645 11.8907L8.23811 14.1823C8.62166 14.5659 9.24352 14.5659 9.62707 14.1823L14.8652 8.94425Z" fill="#BAFF66"/>
</g>
<defs>
<clipPath id="clip0_6899_9404">
<rect width="20" height="20" fill="white" transform="translate(0.569336 0.869141)"/>
</clipPath>
</defs>
</svg>
